<svg width="580" height="400" xmlns="http://www.w3.org/2000/svg">
 <g>
  <rect fill="#fff" id="canvas_background" height="402" width="582" y="-1" x="-1"/>
  <g display="none" overflow="visible" y="0" x="0" height="100%" width="100%" id="canvasGrid">
   <rect fill="url(#gridpattern)" stroke-width="0" y="0" x="0" height="100%" width="100%"/>
  </g>
 </g>
 <g>
  <rect rx="52" id="svg_2" height="282" width="278" y="67" x="152" stroke-width="9" stroke="#FABA6F" fill="#7B572D"/>
  <path id="svg_1" d="m291.75741,95.08503c-62.96107,0 -114.00002,51.03827 -114.00002,113.99997c0,62.96038 51.03895,114.00001 114.00002,114.00001c62.96179,0 114.00001,-51.03963 114.00001,-114.00001c0,-62.9617 -51.03822,-113.99997 -114.00001,-113.99997zm9.84409,175.80686l0,16.05719l-15.35787,0l0,-15.87627c-25.20194,-3.45137 -36.24581,-24.15843 -36.24581,-24.15843l15.70335,-13.12192c0,0 10.00867,17.43658 28.12759,17.43658c10.00787,0 17.60106,-5.35724 17.60106,-14.5042c0,-21.4041 -57.64325,-18.8086 -57.64325,-58.50512c0,-17.25713 13.63214,-29.68935 32.44889,-32.62174l0,-16.05559l15.35851,0l0,16.0467c13.11455,1.72643 28.64512,8.62923 28.64512,23.47627l0,11.38938l-20.3629,0l0,-5.52177c0,-5.6941 -7.25519,-9.49117 -15.36526,-9.49117c-10.35349,0 -17.94672,5.17652 -17.94672,12.4248c0,21.9145 57.64323,16.56595 57.64323,58.1611c0.00823,17.09089 -12.76136,31.93187 -32.60594,34.8642l0,-0.00001z" stroke-width="7.5" stroke="#FABA6F" fill="#FFFF91"/>
 </g>
</svg>
